<svg xmlns="http://www.w3.org/2000/svg" fill="none" viewBox="0 0 32 32" height="1024" width="1024">
<path fill="url(#paint0_radial_966_3945)" d="M15.9989 29.9978C25.3333 29.9978 29.9978 23.7303 29.9978 15.9989C29.9978 8.26751 25.3333 2 15.9989 2C6.66443 2 2 8.26751 2 15.9989C2 23.7303 6.66443 29.9978 15.9989 29.9978Z"></path>
<path fill="url(#paint1_radial_966_3945)" d="M15.9989 29.9978C25.3333 29.9978 29.9978 23.7303 29.9978 15.9989C29.9978 8.26751 25.3333 2 15.9989 2C6.66443 2 2 8.26751 2 15.9989C2 23.7303 6.66443 29.9978 15.9989 29.9978Z"></path>
<path fill="url(#paint2_radial_966_3945)" d="M15.9989 29.9978C25.3333 29.9978 29.9978 23.7303 29.9978 15.9989C29.9978 8.26751 25.3333 2 15.9989 2C6.66443 2 2 8.26751 2 15.9989C2 23.7303 6.66443 29.9978 15.9989 29.9978Z"></path>
<path fill-opacity="0.6" fill="url(#paint3_radial_966_3945)" d="M15.9989 29.9978C25.3333 29.9978 29.9978 23.7303 29.9978 15.9989C29.9978 8.26751 25.3333 2 15.9989 2C6.66443 2 2 8.26751 2 15.9989C2 23.7303 6.66443 29.9978 15.9989 29.9978Z"></path>
<path fill="url(#paint4_radial_966_3945)" d="M15.9989 29.9978C25.3333 29.9978 29.9978 23.7303 29.9978 15.9989C29.9978 8.26751 25.3333 2 15.9989 2C6.66443 2 2 8.26751 2 15.9989C2 23.7303 6.66443 29.9978 15.9989 29.9978Z"></path>
<path fill="url(#paint5_radial_966_3945)" d="M15.9989 29.9978C25.3333 29.9978 29.9978 23.7303 29.9978 15.9989C29.9978 8.26751 25.3333 2 15.9989 2C6.66443 2 2 8.26751 2 15.9989C2 23.7303 6.66443 29.9978 15.9989 29.9978Z"></path>
<path fill="url(#paint6_radial_966_3945)" d="M15.9989 29.9978C25.3333 29.9978 29.9978 23.7303 29.9978 15.9989C29.9978 8.26751 25.3333 2 15.9989 2C6.66443 2 2 8.26751 2 15.9989C2 23.7303 6.66443 29.9978 15.9989 29.9978Z"></path>
<path fill="url(#paint7_radial_966_3945)" d="M15.9989 29.9978C25.3333 29.9978 29.9978 23.7303 29.9978 15.9989C29.9978 8.26751 25.3333 2 15.9989 2C6.66443 2 2 8.26751 2 15.9989C2 23.7303 6.66443 29.9978 15.9989 29.9978Z"></path>
<g filter="url(#filter0_f_966_3945)" opacity="0.5">
<path stroke-linecap="round" stroke-width="2" stroke="#9A4609" d="M7.75 15.5C7.75 15.5 8.25 14 10.25 14C12.25 14 12.75 15.5 12.75 15.5"></path>
</g>
<g filter="url(#filter1_f_966_3945)" opacity="0.5">
<path stroke-linecap="round" stroke-width="2" stroke="#9A4609" d="M18.75 15.5C18.75 15.5 19.25 14 21.25 14C23.25 14 23.75 15.5 23.75 15.5"></path>
</g>
<path stroke-linejoin="round" stroke-linecap="round" stroke-width="2" stroke="url(#paint8_linear_966_3945)" d="M8 15C8 15 8.5 13.5 10.5 13.5C12.5 13.5 13 15 13 15"></path>
<path stroke-linejoin="round" stroke-linecap="round" stroke-width="2" stroke="url(#paint9_linear_966_3945)" d="M19 15C19 15 19.5 13.5 21.5 13.5C23.5 13.5 24 15 24 15"></path>
<g filter="url(#filter2_f_966_3945)" opacity="0.26">
<path stroke-linejoin="round" stroke-linecap="round" stroke-width="0.75" stroke="white" d="M8.25 14.75C8.25 14.75 8.75 13.25 10.75 13.25C12.75 13.25 13.25 14.75 13.25 14.75"></path>
</g>
<g filter="url(#filter3_f_966_3945)" opacity="0.26">
<path stroke-linejoin="round" stroke-linecap="round" stroke-width="0.75" stroke="white" d="M19.25 14.75C19.25 14.75 19.75 13.25 21.75 13.25C23.75 13.25 24.25 14.75 24.25 14.75"></path>
</g>
<path fill="url(#paint10_linear_966_3945)" d="M20.2455 24.6997C17.897 22.3684 14.0992 22.3765 11.7584 24.7259C11.3686 25.1171 10.7355 25.1183 10.3442 24.7284C9.953 24.3386 9.95184 23.7055 10.3417 23.3142C13.4609 20.1836 18.5231 20.1717 21.6546 23.2804C22.0465 23.6694 22.0488 24.3026 21.6597 24.6946C21.2706 25.0865 20.6375 25.0888 20.2455 24.6997Z" clip-rule="evenodd" fill-rule="evenodd"></path>
<path fill="url(#paint11_radial_966_3945)" d="M8.36105 3.83032C8.76531 4.4553 8.99999 5.2002 8.99999 5.99992V11.9999C8.99999 14.2091 7.20913 15.9999 4.99999 15.9999C3.82962 15.9999 2.77664 15.4973 2.04517 14.6961C2.37238 10.0356 4.47723 6.03701 8.36105 3.83032Z" clip-rule="evenodd" fill-rule="evenodd"></path>
<rect fill="url(#paint12_radial_966_3945)" rx="3" height="11" width="6" y="2" x="3"></rect>
<defs>
<filter color-interpolation-filters="sRGB" filterUnits="userSpaceOnUse" height="6.50024" width="10.0005" y="11.5" x="5.24976" id="filter0_f_966_3945">
<feFlood result="BackgroundImageFix" flood-opacity="0"></feFlood>
<feBlend result="shape" in2="BackgroundImageFix" in="SourceGraphic" mode="normal"></feBlend>
<feGaussianBlur result="effect1_foregroundBlur_966_3945" stdDeviation="0.75"></feGaussianBlur>
</filter>
<filter color-interpolation-filters="sRGB" filterUnits="userSpaceOnUse" height="6.50024" width="10.0005" y="11.5" x="16.2498" id="filter1_f_966_3945">
<feFlood result="BackgroundImageFix" flood-opacity="0"></feFlood>
<feBlend result="shape" in2="BackgroundImageFix" in="SourceGraphic" mode="normal"></feBlend>
<feGaussianBlur result="effect1_foregroundBlur_966_3945" stdDeviation="0.75"></feGaussianBlur>
</filter>
<filter color-interpolation-filters="sRGB" filterUnits="userSpaceOnUse" height="5.25" width="8.75024" y="11.375" x="6.37488" id="filter2_f_966_3945">
<feFlood result="BackgroundImageFix" flood-opacity="0"></feFlood>
<feBlend result="shape" in2="BackgroundImageFix" in="SourceGraphic" mode="normal"></feBlend>
<feGaussianBlur result="effect1_foregroundBlur_966_3945" stdDeviation="0.75"></feGaussianBlur>
</filter>
<filter color-interpolation-filters="sRGB" filterUnits="userSpaceOnUse" height="5.25" width="8.75024" y="11.375" x="17.3749" id="filter3_f_966_3945">
<feFlood result="BackgroundImageFix" flood-opacity="0"></feFlood>
<feBlend result="shape" in2="BackgroundImageFix" in="SourceGraphic" mode="normal"></feBlend>
<feGaussianBlur result="effect1_foregroundBlur_966_3945" stdDeviation="0.75"></feGaussianBlur>
</filter>
<radialGradient gradientTransform="translate(25.5 9) rotate(132.839) scale(37.5033)" gradientUnits="userSpaceOnUse" r="1" cy="0" cx="0" id="paint0_radial_966_3945">
<stop stop-color="#FFF478"></stop>
<stop stop-color="#FFB02E" offset="0.474827"></stop>
<stop stop-color="#F70A8D" offset="1"></stop>
</radialGradient>
<radialGradient gradientTransform="translate(25.5 9) rotate(131.878) scale(38.9487)" gradientUnits="userSpaceOnUse" r="1" cy="0" cx="0" id="paint1_radial_966_3945">
<stop stop-color="#FFF478"></stop>
<stop stop-color="#FFB02E" offset="0.474827"></stop>
<stop stop-color="#F70A8D" offset="1"></stop>
</radialGradient>
<radialGradient gradientTransform="translate(16 12.5) rotate(101.31) scale(17.8466 22.8581)" gradientUnits="userSpaceOnUse" r="1" cy="0" cx="0" id="paint2_radial_966_3945">
<stop stop-opacity="0" stop-color="#F59639" offset="0.787821"></stop>
<stop stop-color="#FF7DCE" offset="0.972509"></stop>
</radialGradient>
<radialGradient gradientTransform="translate(18 14) rotate(135) scale(41.0122)" gradientUnits="userSpaceOnUse" r="1" cy="0" cx="0" id="paint3_radial_966_3945">
<stop stop-opacity="0" offset="0.314853"></stop>
<stop offset="1"></stop>
</radialGradient>
<radialGradient gradientTransform="translate(16 17) rotate(77.692) scale(28.1469)" gradientUnits="userSpaceOnUse" r="1" cy="0" cx="0" id="paint4_radial_966_3945">
<stop stop-opacity="0" stop-color="#7D6133" offset="0.507903"></stop>
<stop stop-color="#715B32" offset="1"></stop>
</radialGradient>
<radialGradient gradientTransform="translate(16.5 16.5) rotate(55.7131) scale(13.3135 9.65032)" gradientUnits="userSpaceOnUse" r="1" cy="0" cx="0" id="paint5_radial_966_3945">
<stop stop-color="#FFB849"></stop>
<stop stop-opacity="0" stop-color="#FFB847" offset="1"></stop>
</radialGradient>
<radialGradient gradientTransform="translate(20.5 18) rotate(9.86581) scale(11.6726)" gradientUnits="userSpaceOnUse" r="1" cy="0" cx="0" id="paint6_radial_966_3945">
<stop stop-color="#FFA64B"></stop>
<stop stop-opacity="0" stop-color="#FFAE46" offset="0.900412"></stop>
</radialGradient>
<radialGradient gradientTransform="translate(17.5 15) rotate(43.9708) scale(59.0529)" gradientUnits="userSpaceOnUse" r="1" cy="0" cx="0" id="paint7_radial_966_3945">
<stop stop-opacity="0" offset="0.185425"></stop>
<stop stop-opacity="0.4" offset="1"></stop>
</radialGradient>
<linearGradient gradientUnits="userSpaceOnUse" y2="15" x2="10.5" y1="12.5" x1="11.5" id="paint8_linear_966_3945">
<stop stop-color="#52383E"></stop>
<stop stop-color="#432A35" offset="1"></stop>
</linearGradient>
<linearGradient gradientUnits="userSpaceOnUse" y2="15" x2="21.5" y1="12.5" x1="22.5" id="paint9_linear_966_3945">
<stop stop-color="#52383E"></stop>
<stop stop-color="#432A35" offset="1"></stop>
</linearGradient>
<linearGradient gradientUnits="userSpaceOnUse" y2="22.9888" x2="16" y1="20.9263" x1="16" id="paint10_linear_966_3945">
<stop stop-color="#4F3C43"></stop>
<stop stop-color="#512756" offset="1"></stop>
</linearGradient>
<radialGradient gradientTransform="translate(6.82661 5.12176) rotate(107.831) scale(9.9366 4.29216)" gradientUnits="userSpaceOnUse" r="1" cy="0" cx="0" id="paint11_radial_966_3945">
<stop stop-color="#392108"></stop>
<stop stop-opacity="0" stop-color="#C87928" offset="1"></stop>
</radialGradient>
<radialGradient gradientTransform="translate(8 2.5) rotate(104.621) scale(11.8849 4.44155)" gradientUnits="userSpaceOnUse" r="1" cy="0" cx="0" id="paint12_radial_966_3945">
<stop stop-color="#5C98FF"></stop>
<stop stop-color="#3D5BF1" offset="0.805982"></stop>
<stop stop-color="#6065CA" offset="0.962238"></stop>
</radialGradient>
</defs>
</svg>
